<svg width="1600" height="900" viewBox="0 0 1600 900" fill="none" xmlns="http://www.w3.org/2000/svg">
  <rect width="1600" height="900" fill="#F7EBDD"/>
  <g opacity="0.18">
    <circle cx="240" cy="170" r="120" fill="#E97824"/>
    <circle cx="740" cy="220" r="150" fill="#35205F"/>
    <circle cx="1220" cy="190" r="140" fill="#E97824"/>
    <circle cx="420" cy="620" r="170" fill="#35205F"/>
    <circle cx="1040" cy="620" r="180" fill="#35205F"/>
  </g>
  <g id="countries" opacity="0.9">
    <path id="russia" d="M860 190 C 965 150, 1125 145, 1210 190 C 1285 230, 1305 290, 1230 330 C 1130 390, 955 370, 870 320 C 785 270, 770 215, 860 190 Z" fill="#59327D"/>
    <path id="france" d="M700 300 C 720 284, 760 286, 775 312 C 785 337, 759 360, 725 358 C 692 356, 674 326, 700 300 Z" fill="#59327D"/>
    <path id="uk" d="M655 240 C 678 220, 707 220, 725 242 C 740 260, 731 286, 707 290 C 681 295, 648 266, 655 240 Z" fill="#59327D"/>
    <path id="usa" d="M180 250 C 250 200, 385 205, 430 265 C 465 312, 420 370, 330 374 C 235 378, 145 310, 180 250 Z" fill="#59327D"/>
    <path id="japan" d="M1260 265 C 1285 250, 1320 258, 1332 282 C 1342 304, 1320 326, 1296 324 C 1270 322, 1244 286, 1260 265 Z" fill="#59327D"/>
    <path id="canada" d="M210 150 C 285 120, 385 132, 435 165 C 470 188, 450 225, 385 230 C 300 236, 205 203, 210 150 Z" fill="#59327D"/>
  </g>
  <g opacity="0.35" fill="#1F103D" font-family="Georgia, serif" font-size="28">
    <text x="90" y="70">LiteraryMap SVG scaffold</text>
  </g>
</svg>
