<svg xmlns="http://www.w3.org/2000/svg" viewBox="0 0 64 64" width="64" height="64" role="img" aria-labelledby="title-fi desc-fi">
  <title id="title-fi">Финляндия — FI</title>
  <desc id="desc-fi">Круглая SVG-иконка флага страны «Финляндия».</desc>
  <defs>
    <clipPath id="clip-fi"><circle cx="32" cy="32" r="30"/></clipPath>
  </defs>
  <g clip-path="url(#clip-fi)">
    <rect width="64" height="64" fill="#FFFFFF"/>
    <g transform="matrix(0.16216216 0 0 -0.16216216 -9.51351351 63.13513514)">
      <path d="M455 377Q479 377 495.5 360.5Q512 344 512 320V235H256V377ZM455 7H256V149H512V64Q512 40 495.5 23.5Q479 7 455 7ZM156 7H57Q33 7 16.5 23.5Q0 40 0 64V149H156Z" fill="#EDECEC"/>
      <path d="M156 377V235H0V320Q0 344 16.5 360.5Q33 377 57 377Z" fill="#EEEEEE"/>
      <path d="M256 377V235H512V149H256V7H156V149H0V235H156V377Z" fill="#003580"/>
    </g>
  </g>
  <circle cx="32" cy="32" r="30" fill="none" stroke="#DCCFC7" stroke-width="1.5"/>
</svg>
