<svg xmlns="http://www.w3.org/2000/svg" viewBox="0 0 64 64" width="64" height="64" role="img" aria-labelledby="title-jo desc-jo">
  <title id="title-jo">Иордания — JO</title>
  <desc id="desc-jo">Круглая SVG-иконка флага страны «Иордания».</desc>
  <defs>
    <clipPath id="clip-jo"><circle cx="32" cy="32" r="30"/></clipPath>
  </defs>
  <g clip-path="url(#clip-jo)">
    <rect width="64" height="64" fill="#FFFFFF"/>
    <g transform="matrix(0.16216216 0 0 -0.16216216 -9.51351351 63.13513514)">
      <path d="M455 377Q479 377 495.5 360.5Q512 344 512 320V256H0V320Q0 344 16.5 360.5Q33 377 57 377Z" fill="#141414"/>
      <path d="M0 64V128H512V64Q512 40 495.5 23.5Q479 7 455 7H57Q33 7 16.5 23.5Q0 40 0 64Z" fill="#007A3D"/>
      <path d="M0 256H512V128H0Z" fill="#EEEEEE"/>
      <path d="M19 363 249 192 19 21Q0 38 0 64V320Q0 346 19 363Z" fill="#CE1126"/>
      <path d="M94 173 79 159 81 179 61 183 77 194 67 212 87 206 94 225 102 206 121 212 111 194 128 183 108 179 109 159Z" fill="#FFFFFF"/>
    </g>
  </g>
  <circle cx="32" cy="32" r="30" fill="none" stroke="#DCCFC7" stroke-width="1.5"/>
</svg>
