<svg xmlns="http://www.w3.org/2000/svg" viewBox="0 0 64 64" width="64" height="64" role="img" aria-labelledby="title-ly desc-ly">
  <title id="title-ly">Ливия — LY</title>
  <desc id="desc-ly">Круглая SVG-иконка флага страны «Ливия».</desc>
  <defs>
    <clipPath id="clip-ly"><circle cx="32" cy="32" r="30"/></clipPath>
  </defs>
  <g clip-path="url(#clip-ly)">
    <rect width="64" height="64" fill="#FFFFFF"/>
    <g transform="matrix(0.16216216 0 0 -0.16216216 -9.51351351 63.13513514)">
      <path d="M0 107V277H512V107ZM302 225V200L278 192L302 184V159L317 180L341 172L326 192L341 212L317 204ZM289 159Q278 152 265 152Q259 152 253.0 154.0Q247 156 242.0 159.5Q237 163 233.0 168.0Q229 173 227.0 179.0Q225 185 225 192Q225 209 237.0 220.5Q249 232 265 232Q278 232 289 225Q275 238 256.0 238.0Q237 238 223.5 224.5Q210 211 210.0 192.0Q210 173 223.5 159.5Q237 146 256.0 146.0Q275 146 289 159Z" fill="#141414"/>
      <path d="M455 377Q479 377 495.5 360.5Q512 344 512 320V277H0V320Q0 344 16.5 360.5Q33 377 57 377Z" fill="#E70013"/>
      <path d="M455 7H57Q33 7 16.5 23.5Q0 40 0 64V107H512V64Q512 40 495.5 23.5Q479 7 455 7Z" fill="#239E46"/>
      <path d="M289 225Q278 232 265 232Q257 232 249.5 229.0Q242 226 237.0 220.5Q232 215 228.5 207.5Q225 200 225 192Q225 175 237.0 163.5Q249 152 265 152Q278 152 289 159Q275 146 256.0 146.0Q237 146 223.5 159.5Q210 173 210.0 192.0Q210 211 223.5 224.5Q237 238 256.0 238.0Q275 238 289 225Z" fill="#FFFFFF"/>
      <path d="M302 184 278 192 302 200V225L317 204L341 212L326 192L341 172L317 180L302 159Z" fill="#FFFFFF"/>
    </g>
  </g>
  <circle cx="32" cy="32" r="30" fill="none" stroke="#DCCFC7" stroke-width="1.5"/>
</svg>
