<svg xmlns="http://www.w3.org/2000/svg" viewBox="0 0 64 64" width="64" height="64" role="img" aria-labelledby="title-mu desc-mu">
  <title id="title-mu">Маврикий — MU</title>
  <desc id="desc-mu">Круглая SVG-иконка флага страны «Маврикий».</desc>
  <defs>
    <clipPath id="clip-mu"><circle cx="32" cy="32" r="30"/></clipPath>
  </defs>
  <g clip-path="url(#clip-mu)">
    <rect width="64" height="64" fill="#FFFFFF"/>
    <g transform="matrix(0.16216216 0 0 -0.16216216 -9.51351351 63.13513514)">
      <path d="M455 377Q479 377 495.5 360.5Q512 344 512 320V284H0V320Q0 344 16.5 360.5Q33 377 57 377Z" fill="#EA2839"/>
      <path d="M0 284H512V192H0Z" fill="#1A206D"/>
      <path d="M0 192H512V100H0Z" fill="#FFD500"/>
      <path d="M0 100H512V64Q512 40 495.5 23.5Q479 7 455 7H57Q33 7 16.5 23.5Q0 40 0 64Z" fill="#00A551"/>
    </g>
  </g>
  <circle cx="32" cy="32" r="30" fill="none" stroke="#DCCFC7" stroke-width="1.5"/>
</svg>
