<svg xmlns="http://www.w3.org/2000/svg" viewBox="0 0 64 64" width="64" height="64" role="img" aria-labelledby="title-ss desc-ss">
  <title id="title-ss">Южный Судан — SS</title>
  <desc id="desc-ss">Круглая SVG-иконка флага страны «Южный Судан».</desc>
  <defs>
    <clipPath id="clip-ss"><circle cx="32" cy="32" r="30"/></clipPath>
  </defs>
  <g clip-path="url(#clip-ss)">
    <rect width="64" height="64" fill="#FFFFFF"/>
    <g transform="matrix(0.16216216 0 0 -0.16216216 -9.51351351 63.13513514)">
      <path d="M455 377Q479 377 495.5 360.5Q512 344 512 320V277H0V320Q0 344 16.5 360.5Q33 377 57 377Z" fill="#141414"/>
      <path d="M0 64V107H512V64Q512 40 495.5 23.5Q479 7 455 7H57Q33 7 16.5 23.5Q0 40 0 64Z" fill="#078930"/>
      <path d="M0 277H512V107H0Z" fill="#DA121A"/>
      <path d="M0 277H512V249H0ZM0 135H512V107H0Z" fill="#EEEEEE"/>
      <path d="M19 363 249 192 19 21Q0 38 0 60V316Q0 346 19 363Z" fill="#0F47AF"/>
      <path d="M117 193 143 158 102 172 76 137V180L36 193L76 206V249L102 215L143 228Z" fill="#FCDD09"/>
    </g>
  </g>
  <circle cx="32" cy="32" r="30" fill="none" stroke="#DCCFC7" stroke-width="1.5"/>
</svg>
